<?xml version="1.0" encoding="UTF-8" standalone="no"?>
<!-- Created with Inkscape (http://www.inkscape.org/) -->

<svg
   width="55.925285mm"
   height="64.541374mm"
   viewBox="0 0 55.925285 64.541374"
   version="1.1"
   id="svg1"
   xml:space="preserve"
   inkscape:version="1.4.3 (0d15f75, 2025-12-25)"
   sodipodi:docname="tux.svg"
   xmlns:inkscape="http://www.inkscape.org/namespaces/inkscape"
   xmlns:sodipodi="http://sodipodi.sourceforge.net/DTD/sodipodi-0.dtd"
   xmlns="http://www.w3.org/2000/svg"
   xmlns:svg="http://www.w3.org/2000/svg"><sodipodi:namedview
     id="namedview1"
     pagecolor="#ffffff"
     bordercolor="#000000"
     borderopacity="0.25"
     inkscape:showpageshadow="2"
     inkscape:pageopacity="0.0"
     inkscape:pagecheckerboard="0"
     inkscape:deskcolor="#d1d1d1"
     inkscape:document-units="mm"
     inkscape:zoom="1.8752719"
     inkscape:cx="120.51586"
     inkscape:cy="106.6512"
     inkscape:window-width="1710"
     inkscape:window-height="1073"
     inkscape:window-x="0"
     inkscape:window-y="38"
     inkscape:window-maximized="0"
     inkscape:current-layer="layer1" /><defs
     id="defs1" /><g
     inkscape:label="Vrstva 1"
     inkscape:groupmode="layer"
     id="layer1"
     style="display:inline"
     transform="translate(-62.978113,-129.10324)"><path
       style="display:inline;fill:#030c10;fill-opacity:1;stroke-width:11.1;stroke-linejoin:bevel;stroke-opacity:0"
       d="m 89.986688,129.12519 c -12.716174,1.89087 -7.713899,14.46426 -7.850103,22.33638 -2.514328,3.90753 -7.582265,7.07027 -7.206382,11.82079 0.04098,0.51792 -3.411151,6.73194 -3.230394,7.29063 -1.845028,6.51456 3.767734,11.65821 8.170765,20.05816 6.668896,-0.76462 13.307245,-1.19323 19.746653,0.56651 L 111.9,175.4606 c 2.20688,-9.95984 -2.04102,-16.08542 -6.33746,-20.56877 -1.53508,-2.6014 -3.90584,-5.39947 -4.29548,-8.83391 0.69442,-10.6708 -2.237828,-17.38988 -11.280372,-16.93273 z"
       id="path1"
       sodipodi:nodetypes="ccsccccccc" /><path
       style="fill:#faf6e6;fill-opacity:1;stroke-width:11.1;stroke-linejoin:bevel;stroke-opacity:0"
       d="m 83.803283,148.19709 c 0.164124,1.38911 0.05917,2.77822 -0.17126,4.16733 -1.867286,2.64088 -4.360902,5.01575 -3.288187,7.46695 -3.055517,4.4625 -5.629221,9.36074 -4.018911,15.76733 3.015109,4.39353 -0.700051,11.23962 12.787421,11.81695 7.517158,-0.20971 11.748434,-4.92229 13.929154,-12.4449 1.05849,-9.13467 -0.44749,-13.99523 -3.539372,-16.21262 -0.519896,-3.02359 0.126932,-5.52215 -4.110244,-10.21852 z"
       id="path5"
       sodipodi:nodetypes="ccccccccc" /></g><g
     inkscape:groupmode="layer"
     id="layer13"
     inkscape:label="feet"
     transform="translate(-62.978113,-129.10324)"><path
       style="fill:#dab139;fill-opacity:1;stroke-width:11.1;stroke-linejoin:bevel;stroke-opacity:0"
       d="m 81.989357,184.29296 c -2.492193,-3.86529 -3.908765,-7.78436 -7.866806,-11.57636 -1.904936,-1.02243 -3.396546,-0.10223 -4.477044,2.75019 -0.13612,0.4615 -0.07281,1.10581 -1.151239,0.70353 -5.748022,-0.75578 -4.290512,5.02753 -4.429128,4.84688 l 0.463747,2.06056 c 0.447704,1.94005 -4.543481,5.03381 1.343112,5.82016 l 9.209918,2.43039 c 2.699499,0.78204 5.426631,1.62395 7.163271,0.31979 2.341295,-2.59731 1.494563,-5.00333 -0.255831,-7.35514 z"
       id="path2"
       sodipodi:nodetypes="cccccccccc" /><path
       style="fill:#dab139;fill-opacity:1;stroke-width:11.1;stroke-linejoin:bevel;stroke-opacity:0"
       d="m 106.92327,191.95513 c 3.86528,-2.4922 7.78435,-3.90877 11.57635,-7.86681 1.02243,-1.90494 0.10223,-3.39656 -2.75019,-4.47705 -0.4615,-0.13612 -1.10581,-0.0728 -0.70353,-1.15124 0.75578,-5.74802 -5.02753,-4.29051 -4.84688,-4.42913 l -2.06056,0.46375 c -1.94004,0.4477 -5.0338,-4.54348 -5.82015,1.34311 l -2.430394,9.20993 c -0.78204,2.69949 -1.62395,5.42663 -0.31979,7.16327 2.597314,2.34129 5.003334,1.49456 7.355144,-0.25583 z"
       id="path2-1"
       sodipodi:nodetypes="cccccccccc" /></g><g
     inkscape:groupmode="layer"
     id="layer14"
     inkscape:label="feet 1"
     transform="translate(-62.978113,-129.10324)"><ellipse
       style="fill:#fefcf7;fill-opacity:1;stroke-width:11.1049;stroke-linejoin:bevel;stroke-opacity:0"
       id="path3"
       cx="93.210632"
       cy="138.23015"
       rx="3.1365688"
       ry="3.9513144"
       transform="matrix(0.99910306,0.04234478,0,1,0,0)" /><ellipse
       style="fill:#fefcf7;fill-opacity:1;stroke-width:11.1068;stroke-linejoin:bevel;stroke-opacity:0"
       id="path3-2"
       cx="79.575455"
       cy="141.64618"
       rx="2.3191395"
       ry="3.4406645"
       transform="matrix(0.99994862,0.01013715,0.03974165,0.99920999,0,0)" /><path
       style="fill:#dab139;fill-opacity:1;stroke-width:11.1;stroke-linejoin:bevel;stroke-opacity:0"
       d="m 88.760534,143.15697 c -2.140123,0.0957 -5.5209,2.74928 -5.700585,3.85392 -0.277106,1.23728 0.490957,1.49906 1.124058,1.88681 1.938814,2.90874 2.856039,3.00811 3.811832,3.21355 4.021559,-0.39534 5.457706,-2.12508 7.66963,-3.45442 1.134961,-2.17855 0.642307,-2.61323 0.04014,-2.93058 -2.497737,-1.10004 -5.329409,-2.64533 -6.945075,-2.56928 z"
       id="path4"
       sodipodi:nodetypes="ccccccc" /></g><ellipse
     style="fill:#000000;fill-opacity:1;stroke-width:11.1;stroke-linejoin:bevel;stroke-opacity:0"
     id="path6"
     cx="30.084532"
     cy="12.931074"
     rx="1.5903457"
     ry="2.5226173" /><ellipse
     style="fill:#000000;fill-opacity:1;stroke-width:11.1;stroke-linejoin:bevel;stroke-opacity:0"
     id="path6-0"
     cx="22.645056"
     cy="13.164595"
     rx="1.3161482"
     ry="2.0839012" /></svg>
